REM DIRINDEX 1\2\4\8,1\2\4\9,1\2\4\10,1\2\5\11,1\2\5\12,1\2\5\13,1\2\5\14,1\2\5\15,1\3\6\16,1\3\6\17,1\3\6\18,1\3\7\19,1\3\7\20,1\3\7\21,1\3\7\22,1\3\7\23
REM DIRNAME "folder01","folder02","folder03","folder04","folder05","folder06","folder07","folder08","folder09","folder10","folder11","folder12","folder13","folder14","folder15","folder16","folder17","folder18","folder19","folder20","folder21","folder22","folder23"
TITLE ""
FILE "LR_black_phrase_E_10.mp3" MP3
  TRACK 01 AUDIO
    TITLE "0:"
    INDEX 01 00:00:00
  TRACK 02 AUDIO
    TITLE "8:cjc171_02701"
    INDEX 01 00:00:14
  TRACK 03 AUDIO
    TITLE "0:"
    INDEX 01 00:01:37
  TRACK 04 AUDIO
    TITLE "9:cjc171_02702"
    INDEX 01 00:01:67
  TRACK 05 AUDIO
    TITLE "0:"
    INDEX 01 00:04:45
  TRACK 06 AUDIO
    TITLE "10:cjc171_02703"
    INDEX 01 00:05:25
  TRACK 07 AUDIO
    TITLE "0:"
    INDEX 01 00:08:04
  TRACK 08 AUDIO
    TITLE "8:cjc171_02704"
    INDEX 01 00:09:07
  TRACK 09 AUDIO
    TITLE "0:"
    INDEX 01 00:10:40
  TRACK 10 AUDIO
    TITLE "9:cjc171_02705"
    INDEX 01 00:10:69
  TRACK 11 AUDIO
    TITLE "0:"
    INDEX 01 00:13:34
  TRACK 12 AUDIO
    TITLE "10:cjc171_02706"
    INDEX 01 00:14:12
  TRACK 13 AUDIO
    TITLE "0:"
    INDEX 01 00:16:52
  TRACK 14 AUDIO
    TITLE "8:cjc171_02707"
    INDEX 01 00:17:54
  TRACK 15 AUDIO
    TITLE "0:"
    INDEX 01 00:18:59
  TRACK 16 AUDIO
    TITLE "9:cjc171_02708"
    INDEX 01 00:19:12
  TRACK 17 AUDIO
    TITLE "0:"
    INDEX 01 00:22:10
  TRACK 18 AUDIO
    TITLE "10:cjc171_02709"
    INDEX 01 00:22:65
  TRACK 19 AUDIO
    TITLE "0:"
    INDEX 01 00:25:61
  TRACK 20 AUDIO
    TITLE "8:cjc171_02710"
    INDEX 01 00:26:66
  TRACK 21 AUDIO
    TITLE "0:"
    INDEX 01 00:28:14
  TRACK 22 AUDIO
    TITLE "9:cjc171_02711"
    INDEX 01 00:28:44
  TRACK 23 AUDIO
    TITLE "0:"
    INDEX 01 00:30:54
  TRACK 24 AUDIO
    TITLE "10:cjc171_02712"
    INDEX 01 00:31:34
  TRACK 25 AUDIO
    TITLE "0:"
    INDEX 01 00:33:47
  TRACK 26 AUDIO
    TITLE "8:cjc171_02713"
    INDEX 01 00:34:50
  TRACK 27 AUDIO
    TITLE "0:"
    INDEX 01 00:35:71
  TRACK 28 AUDIO
    TITLE "9:cjc171_02714"
    INDEX 01 00:36:26
  TRACK 29 AUDIO
    TITLE "0:"
    INDEX 01 00:38:32
  TRACK 30 AUDIO
    TITLE "10:cjc171_02715"
    INDEX 01 00:39:10
  TRACK 31 AUDIO
    TITLE "0:"
    INDEX 01 00:41:17
  TRACK 32 AUDIO
    TITLE "8:cjc171_02716"
    INDEX 01 00:42:20
  TRACK 33 AUDIO
    TITLE "0:"
    INDEX 01 00:43:36
  TRACK 34 AUDIO
    TITLE "9:cjc171_02717"
    INDEX 01 00:43:67
  TRACK 35 AUDIO
    TITLE "0:"
    INDEX 01 00:45:50
  TRACK 36 AUDIO
    TITLE "10:cjc171_02718"
    INDEX 01 00:46:30
  TRACK 37 AUDIO
    TITLE "0:"
    INDEX 01 00:48:13
  TRACK 38 AUDIO
    TITLE "8:cjc171_02719"
    INDEX 01 00:49:17
  TRACK 39 AUDIO
    TITLE "0:"
    INDEX 01 00:50:43
  TRACK 40 AUDIO
    TITLE "9:cjc171_02720"
    INDEX 01 00:50:73
  TRACK 41 AUDIO
    TITLE "0:"
    INDEX 01 00:52:72
  TRACK 42 AUDIO
    TITLE "10:cjc171_02721"
    INDEX 01 00:53:50
  TRACK 43 AUDIO
    TITLE "0:"
    INDEX 01 00:55:49
  TRACK 44 AUDIO
    TITLE "8:cjc171_02722"
    INDEX 01 00:56:52
  TRACK 45 AUDIO
    TITLE "0:"
    INDEX 01 00:57:65
  TRACK 46 AUDIO
    TITLE "9:cjc171_02723"
    INDEX 01 00:58:19
  TRACK 47 AUDIO
    TITLE "0:"
    INDEX 01 01:00:12
  TRACK 48 AUDIO
    TITLE "10:cjc171_02724"
    INDEX 01 01:00:65
  TRACK 49 AUDIO
    TITLE "0:"
    INDEX 01 01:02:54
  TRACK 50 AUDIO
    TITLE "8:cjc171_02725"
    INDEX 01 01:03:60
  TRACK 51 AUDIO
    TITLE "0:"
    INDEX 01 01:05:23
  TRACK 52 AUDIO
    TITLE "9:cjc171_02726"
    INDEX 01 01:05:53
  TRACK 53 AUDIO
    TITLE "0:"
    INDEX 01 01:07:64
  TRACK 54 AUDIO
    TITLE "10:cjc171_02727"
    INDEX 01 01:08:45
  TRACK 55 AUDIO
    TITLE "0:"
    INDEX 01 01:10:58
  TRACK 56 AUDIO
    TITLE "8:cjc171_02728"
    INDEX 01 01:11:61
  TRACK 57 AUDIO
    TITLE "0:"
    INDEX 01 01:13:03
  TRACK 58 AUDIO
    TITLE "9:cjc171_02729"
    INDEX 01 01:13:35
  TRACK 59 AUDIO
    TITLE "0:"
    INDEX 01 01:15:67
  TRACK 60 AUDIO
    TITLE "10:cjc171_02730"
    INDEX 01 01:16:47
  TRACK 61 AUDIO
    TITLE "0:"
    INDEX 01 01:19:04
  TRACK 62 AUDIO
    TITLE "8:cjc171_02731"
    INDEX 01 01:20:05
  TRACK 63 AUDIO
    TITLE "0:"
    INDEX 01 01:21:21
  TRACK 64 AUDIO
    TITLE "9:cjc171_02732"
    INDEX 01 01:21:42
  TRACK 65 AUDIO
    TITLE "0:"
    INDEX 01 01:23:68
  TRACK 66 AUDIO
    TITLE "10:cjc171_02733"
    INDEX 01 01:24:40
  TRACK 67 AUDIO
    TITLE "0:"
    INDEX 01 01:26:67
  TRACK 68 AUDIO
    TITLE "8:cjc171_02734"
    INDEX 01 01:27:62
  TRACK 69 AUDIO
    TITLE "0:"
    INDEX 01 01:29:18
  TRACK 70 AUDIO
    TITLE "9:cjc171_02735"
    INDEX 01 01:29:38
  TRACK 71 AUDIO
    TITLE "0:"
    INDEX 01 01:31:74
  TRACK 72 AUDIO
    TITLE "10:cjc171_02736"
    INDEX 01 01:32:42
  TRACK 73 AUDIO
    TITLE "0:"
    INDEX 01 01:35:03
  TRACK 74 AUDIO
    TITLE "8:cjc171_02737"
    INDEX 01 01:35:72
  TRACK 75 AUDIO
    TITLE "0:"
    INDEX 01 01:37:25
  TRACK 76 AUDIO
    TITLE "9:cjc171_02738"
    INDEX 01 01:37:47
  TRACK 77 AUDIO
    TITLE "0:"
    INDEX 01 01:40:24
  TRACK 78 AUDIO
    TITLE "10:cjc171_02739"
    INDEX 01 01:40:73
  TRACK 79 AUDIO
    TITLE "0:"
    INDEX 01 01:43:48
  TRACK 80 AUDIO
    TITLE "8:cjc171_02740"
    INDEX 01 01:44:47
  TRACK 81 AUDIO
    TITLE "0:"
    INDEX 01 01:46:03
  TRACK 82 AUDIO
    TITLE "9:cjc171_02741"
    INDEX 01 01:46:26
  TRACK 83 AUDIO
    TITLE "0:"
    INDEX 01 01:48:25
  TRACK 84 AUDIO
    TITLE "10:cjc171_02742"
    INDEX 01 01:48:74
  TRACK 85 AUDIO
    TITLE "0:"
    INDEX 01 01:50:73
  TRACK 86 AUDIO
    TITLE "8:cjc171_02743"
    INDEX 01 01:51:73
  TRACK 87 AUDIO
    TITLE "0:"
    INDEX 01 01:53:22
  TRACK 88 AUDIO
    TITLE "9:cjc171_02744"
    INDEX 01 01:53:44
  TRACK 89 AUDIO
    TITLE "0:"
    INDEX 01 01:56:21
  TRACK 90 AUDIO
    TITLE "10:cjc171_02745"
    INDEX 01 01:56:68
  TRACK 91 AUDIO
    TITLE "0:"
    INDEX 01 01:59:45
  TRACK 92 AUDIO
    TITLE "8:cjc171_02746"
    INDEX 01 02:00:40
  TRACK 93 AUDIO
    TITLE "0:"
    INDEX 01 02:01:53
  TRACK 94 AUDIO
    TITLE "9:cjc171_02747"
    INDEX 01 02:02:00
  TRACK 95 AUDIO
    TITLE "0:"
    INDEX 01 02:04:03
  TRACK 96 AUDIO
    TITLE "10:cjc171_02748"
    INDEX 01 02:04:50
  TRACK 97 AUDIO
    TITLE "0:"
    INDEX 01 02:06:51
  TRACK 98 AUDIO
    TITLE "8:cjc171_02749"
    INDEX 01 02:07:50
  TRACK 99 AUDIO
    TITLE "0:"
    INDEX 01 02:09:00
  TRACK 100 AUDIO
    TITLE "9:cjc171_02750"
    INDEX 01 02:09:22
  TRACK 101 AUDIO
    TITLE "0:"
    INDEX 01 02:11:40
  TRACK 102 AUDIO
    TITLE "10:cjc171_02751"
    INDEX 01 02:12:10
  TRACK 103 AUDIO
    TITLE "0:"
    INDEX 01 02:14:31
  TRACK 104 AUDIO
    TITLE "8:cjc171_02752"
    INDEX 01 02:15:24
  TRACK 105 AUDIO
    TITLE "0:"
    INDEX 01 02:16:43
  TRACK 106 AUDIO
    TITLE "9:cjc171_02753"
    INDEX 01 02:16:65
  TRACK 107 AUDIO
    TITLE "0:"
    INDEX 01 02:19:02
  TRACK 108 AUDIO
    TITLE "10:cjc171_02754"
    INDEX 01 02:19:51
  TRACK 109 AUDIO
    TITLE "0:"
    INDEX 01 02:21:64
  TRACK 110 AUDIO
    TITLE "8:cjc171_02755"
    INDEX 01 02:22:71
  TRACK 111 AUDIO
    TITLE "0:"
    INDEX 01 02:24:43
  TRACK 112 AUDIO
    TITLE "9:cjc171_02756"
    INDEX 01 02:24:62
  TRACK 113 AUDIO
    TITLE "0:"
    INDEX 01 02:27:14
  TRACK 114 AUDIO
    TITLE "10:cjc171_02757"
    INDEX 01 02:27:57
  TRACK 115 AUDIO
    TITLE "0:"
    INDEX 01 02:30:08
  TRACK 116 AUDIO
    TITLE "8:cjc171_02758"
    INDEX 01 02:31:05
  TRACK 117 AUDIO
    TITLE "0:"
    INDEX 01 02:32:24
  TRACK 118 AUDIO
    TITLE "9:cjc171_02759"
    INDEX 01 02:32:48
  TRACK 119 AUDIO
    TITLE "0:"
    INDEX 01 02:35:03
  TRACK 120 AUDIO
    TITLE "10:cjc171_02760"
    INDEX 01 02:35:46
  TRACK 121 AUDIO
    TITLE "0:"
    INDEX 01 02:38:02
  TRACK 122 AUDIO
    TITLE "8:cjc171_02761"
    INDEX 01 02:39:03
  TRACK 123 AUDIO
    TITLE "0:"
    INDEX 01 02:40:14
  TRACK 124 AUDIO
    TITLE "9:cjc171_02762"
    INDEX 01 02:40:46
  TRACK 125 AUDIO
    TITLE "0:"
    INDEX 01 02:43:09
  TRACK 126 AUDIO
    TITLE "10:cjc171_02763"
    INDEX 01 02:43:65
  TRACK 127 AUDIO
    TITLE "0:"
    INDEX 01 02:46:31
  TRACK 128 AUDIO
    TITLE "8:cjc171_02764"
    INDEX 01 02:47:34
  TRACK 129 AUDIO
    TITLE "0:"
    INDEX 01 02:48:51
  TRACK 130 AUDIO
    TITLE "9:cjc171_02765"
    INDEX 01 02:49:05
  TRACK 131 AUDIO
    TITLE "0:"
    INDEX 01 02:50:54
  TRACK 132 AUDIO
    TITLE "10:cjc171_02766"
    INDEX 01 02:51:34
  TRACK 133 AUDIO
    TITLE "0:"
    INDEX 01 02:53:09
  TRACK 134 AUDIO
    TITLE "8:cjc171_02767"
    INDEX 01 02:54:16
  TRACK 135 AUDIO
    TITLE "0:"
    INDEX 01 02:55:37
  TRACK 136 AUDIO
    TITLE "9:cjc171_02768"
    INDEX 01 02:55:67
  TRACK 137 AUDIO
    TITLE "0:"
    INDEX 01 02:58:53
  TRACK 138 AUDIO
    TITLE "10:cjc171_02769"
    INDEX 01 02:59:33
  TRACK 139 AUDIO
    TITLE "0:"
    INDEX 01 03:02:18
  TRACK 140 AUDIO
    TITLE "8:cjc171_02770"
    INDEX 01 03:03:21
  TRACK 141 AUDIO
    TITLE "0:"
    INDEX 01 03:04:42
  TRACK 142 AUDIO
    TITLE "9:cjc171_02771"
    INDEX 01 03:04:72
  TRACK 143 AUDIO
    TITLE "0:"
    INDEX 01 03:07:42
  TRACK 144 AUDIO
    TITLE "10:cjc171_02772"
    INDEX 01 03:08:22
  TRACK 145 AUDIO
    TITLE "0:"
    INDEX 01 03:10:66
  TRACK 146 AUDIO
    TITLE "8:cjc171_02773"
    INDEX 01 03:12:01
  TRACK 147 AUDIO
    TITLE "0:"
    INDEX 01 03:13:14
  TRACK 148 AUDIO
    TITLE "9:cjc171_02774"
    INDEX 01 03:13:43
  TRACK 149 AUDIO
    TITLE "0:"
    INDEX 01 03:15:46
  TRACK 150 AUDIO
    TITLE "10:cjc171_02775"
    INDEX 01 03:16:24
  TRACK 151 AUDIO
    TITLE "0:"
    INDEX 01 03:18:31
  TRACK 152 AUDIO
    TITLE "8:cjc171_02776"
    INDEX 01 03:19:32
  TRACK 153 AUDIO
    TITLE "0:"
    INDEX 01 03:20:37
  TRACK 154 AUDIO
    TITLE "9:cjc171_02777"
    INDEX 01 03:20:67
  TRACK 155 AUDIO
    TITLE "0:"
    INDEX 01 03:23:40
  TRACK 156 AUDIO
    TITLE "10:cjc171_02778"
    INDEX 01 03:24:15
  TRACK 157 AUDIO
    TITLE "0:"
    INDEX 01 03:26:59
  TRACK 158 AUDIO
    TITLE "8:cjc171_02779"
    INDEX 01 03:27:61
  TRACK 159 AUDIO
    TITLE "0:"
    INDEX 01 03:29:09
  TRACK 160 AUDIO
    TITLE "9:cjc171_02780"
    INDEX 01 03:29:40
  TRACK 161 AUDIO
    TITLE "0:"
    INDEX 01 03:31:51
  TRACK 162 AUDIO
    TITLE "10:cjc171_02781"
    INDEX 01 03:32:31
  TRACK 163 AUDIO
    TITLE "0:"
    INDEX 01 03:34:41
  TRACK 164 AUDIO
    TITLE "8:cjc171_02782"
    INDEX 01 03:35:45
  TRACK 165 AUDIO
    TITLE "0:"
    INDEX 01 03:36:50
  TRACK 166 AUDIO
    TITLE "9:cjc171_02783"
    INDEX 01 03:37:02
  TRACK 167 AUDIO
    TITLE "0:"
    INDEX 01 03:38:70
  TRACK 168 AUDIO
    TITLE "10:cjc171_02784"
    INDEX 01 03:39:50
  TRACK 169 AUDIO
    TITLE "0:"
    INDEX 01 03:41:41
  TRACK 170 AUDIO
    TITLE "8:cjc171_02785"
    INDEX 01 03:42:49
  TRACK 171 AUDIO
    TITLE "0:"
    INDEX 01 03:43:60
  TRACK 172 AUDIO
    TITLE "9:cjc171_02786"
    INDEX 01 03:44:14
  TRACK 173 AUDIO
    TITLE "0:"
    INDEX 01 03:46:37
  TRACK 174 AUDIO
    TITLE "10:cjc171_02787"
    INDEX 01 03:47:16
  TRACK 175 AUDIO
    TITLE "0:"
    INDEX 01 03:49:41
  TRACK 176 AUDIO
    TITLE "8:cjc171_02788"
    INDEX 01 03:50:46
  TRACK 177 AUDIO
    TITLE "0:"
    INDEX 01 03:51:69
  TRACK 178 AUDIO
    TITLE "9:cjc171_02789"
    INDEX 01 03:52:22
  TRACK 179 AUDIO
    TITLE "0:"
    INDEX 01 03:54:26
  TRACK 180 AUDIO
    TITLE "10:cjc171_02790"
    INDEX 01 03:55:08
  TRACK 181 AUDIO
    TITLE "0:"
    INDEX 01 03:57:13
  TRACK 182 AUDIO
    TITLE "8:cjc171_02791"
    INDEX 01 03:58:14
  TRACK 183 AUDIO
    TITLE "0:"
    INDEX 01 03:59:28
  TRACK 184 AUDIO
    TITLE "9:cjc171_02792"
    INDEX 01 03:59:51
  TRACK 185 AUDIO
    TITLE "0:"
    INDEX 01 04:01:32
  TRACK 186 AUDIO
    TITLE "10:cjc171_02793"
    INDEX 01 04:02:02
  TRACK 187 AUDIO
    TITLE "0:"
    INDEX 01 04:03:59
  TRACK 188 AUDIO
    TITLE "8:cjc171_02794"
    INDEX 01 04:04:54
  TRACK 189 AUDIO
    TITLE "0:"
    INDEX 01 04:06:12
  TRACK 190 AUDIO
    TITLE "9:cjc171_02795"
    INDEX 01 04:06:33
  TRACK 191 AUDIO
    TITLE "0:"
    INDEX 01 04:08:52
  TRACK 192 AUDIO
    TITLE "10:cjc171_02796"
    INDEX 01 04:09:26
  TRACK 193 AUDIO
    TITLE "0:"
    INDEX 01 04:11:44
  TRACK 194 AUDIO
    TITLE "8:cjc171_02797"
    INDEX 01 04:12:44
  TRACK 195 AUDIO
    TITLE "0:"
    INDEX 01 04:13:71
  TRACK 196 AUDIO
    TITLE "9:cjc171_02798"
    INDEX 01 04:14:15
  TRACK 197 AUDIO
    TITLE "0:"
    INDEX 01 04:16:32
  TRACK 198 AUDIO
    TITLE "10:cjc171_02799"
    INDEX 01 04:17:04
  TRACK 199 AUDIO
    TITLE "0:"
    INDEX 01 04:19:18
  TRACK 200 AUDIO
    TITLE "8:cjc171_02800"
    INDEX 01 04:20:14
  TRACK 201 AUDIO
    TITLE "0:"
    INDEX 01 04:21:10
  TRACK 202 AUDIO
    TITLE "9:cjc171_02801"
    INDEX 01 04:21:29
  TRACK 203 AUDIO
    TITLE "0:"
    INDEX 01 04:23:69
  TRACK 204 AUDIO
    TITLE "10:cjc171_02802"
    INDEX 01 04:24:43
  TRACK 205 AUDIO
    TITLE "0:"
    INDEX 01 04:27:04
  TRACK 206 AUDIO
    TITLE "8:cjc171_02803"
    INDEX 01 04:28:04
  TRACK 207 AUDIO
    TITLE "0:"
    INDEX 01 04:29:11
  TRACK 208 AUDIO
    TITLE "9:cjc171_02804"
    INDEX 01 04:29:31
  TRACK 209 AUDIO
    TITLE "0:"
    INDEX 01 04:31:51
  TRACK 210 AUDIO
    TITLE "10:cjc171_02805"
    INDEX 01 04:32:19
  TRACK 211 AUDIO
    TITLE "0:"
    INDEX 01 04:34:40
  TRACK 212 AUDIO
    TITLE "8:cjc171_02806"
    INDEX 01 04:35:35
  TRACK 213 AUDIO
    TITLE "0:"
    INDEX 01 04:36:62
  TRACK 214 AUDIO
    TITLE "9:cjc171_02807"
    INDEX 01 04:37:07
  TRACK 215 AUDIO
    TITLE "0:"
    INDEX 01 04:39:17
  TRACK 216 AUDIO
    TITLE "10:cjc171_02808"
    INDEX 01 04:39:62
  TRACK 217 AUDIO
    TITLE "0:"
    INDEX 01 04:41:71
  TRACK 218 AUDIO
    TITLE "8:cjc171_02809"
    INDEX 01 04:42:66
  TRACK 219 AUDIO
    TITLE "0:"
    INDEX 01 04:44:09
  TRACK 220 AUDIO
    TITLE "9:cjc171_02810"
    INDEX 01 04:44:32
  TRACK 221 AUDIO
    TITLE "0:"
    INDEX 01 04:46:55
  TRACK 222 AUDIO
    TITLE "10:cjc171_02811"
    INDEX 01 04:47:23
  TRACK 223 AUDIO
    TITLE "0:"
    INDEX 01 04:49:43
  TRACK 224 AUDIO
    TITLE "8:cjc171_02812"
    INDEX 01 04:50:37
  TRACK 225 AUDIO
    TITLE "0:"
    INDEX 01 04:51:42
  TRACK 226 AUDIO
    TITLE "9:cjc171_02813"
    INDEX 01 04:51:62
  TRACK 227 AUDIO
    TITLE "0:"
    INDEX 01 04:53:51
  TRACK 228 AUDIO
    TITLE "10:cjc171_02814"
    INDEX 01 04:54:25
  TRACK 229 AUDIO
    TITLE "0:"
    INDEX 01 04:56:14
  TRACK 230 AUDIO
    TITLE "8:cjc171_02815"
    INDEX 01 04:57:17
  TRACK 231 AUDIO
    TITLE "0:"
    INDEX 01 04:58:22
  TRACK 232 AUDIO
    TITLE "9:cjc171_02816"
    INDEX 01 04:58:44
  TRACK 233 AUDIO
    TITLE "0:"
    INDEX 01 05:00:17
  TRACK 234 AUDIO
    TITLE "10:cjc171_02817"
    INDEX 01 05:00:66
  TRACK 235 AUDIO
    TITLE "0:"
    INDEX 01 05:02:40
  TRACK 236 AUDIO
    TITLE "8:cjc171_02818"
    INDEX 01 05:03:37
  TRACK 237 AUDIO
    TITLE "0:"
    INDEX 01 05:04:56
  TRACK 238 AUDIO
    TITLE "9:cjc171_02819"
    INDEX 01 05:05:05
  TRACK 239 AUDIO
    TITLE "0:"
    INDEX 01 05:07:04
  TRACK 240 AUDIO
    TITLE "10:cjc171_02820"
    INDEX 01 05:07:49
  TRACK 241 AUDIO
    TITLE "0:"
    INDEX 01 05:09:50
  TRACK 242 AUDIO
    TITLE "8:cjc171_02821"
    INDEX 01 05:10:49
  TRACK 243 AUDIO
    TITLE "0:"
    INDEX 01 05:12:01
  TRACK 244 AUDIO
    TITLE "9:cjc171_02822"
    INDEX 01 05:12:30
  TRACK 245 AUDIO
    TITLE "0:"
    INDEX 01 05:14:19
  TRACK 246 AUDIO
    TITLE "10:cjc171_02823"
    INDEX 01 05:14:74
  TRACK 247 AUDIO
    TITLE "0:"
    INDEX 01 05:16:63
  TRACK 248 AUDIO
    TITLE "8:cjc171_02824"
    INDEX 01 05:17:71
  TRACK 249 AUDIO
    TITLE "0:"
    INDEX 01 05:19:01
  TRACK 250 AUDIO
    TITLE "9:cjc171_02825"
    INDEX 01 05:19:30
  TRACK 251 AUDIO
    TITLE "0:"
    INDEX 01 05:21:14
  TRACK 252 AUDIO
    TITLE "10:cjc171_02826"
    INDEX 01 05:21:67
  TRACK 253 AUDIO
    TITLE "0:"
    INDEX 01 05:23:50
  TRACK 254 AUDIO
    TITLE "8:cjc171_02827"
    INDEX 01 05:24:55
  TRACK 255 AUDIO
    TITLE "0:"
    INDEX 01 05:25:68
  TRACK 256 AUDIO
    TITLE "9:cjc171_02828"
    INDEX 01 05:26:25
  TRACK 257 AUDIO
    TITLE "0:"
    INDEX 01 05:28:31
  TRACK 258 AUDIO
    TITLE "10:cjc171_02829"
    INDEX 01 05:29:09
  TRACK 259 AUDIO
    TITLE "0:"
    INDEX 01 05:31:16
  TRACK 260 AUDIO
    TITLE "8:cjc171_02830"
    INDEX 01 05:32:21
  TRACK 261 AUDIO
    TITLE "0:"
    INDEX 01 05:33:44
  TRACK 262 AUDIO
    TITLE "9:cjc171_02831"
    INDEX 01 05:33:72
  TRACK 263 AUDIO
    TITLE "0:"
    INDEX 01 05:35:73
  TRACK 264 AUDIO
    TITLE "10:cjc171_02832"
    INDEX 01 05:36:52
  TRACK 265 AUDIO
    TITLE "0:"
    INDEX 01 05:38:53
  TRACK 266 AUDIO
    TITLE "8:cjc171_02833"
    INDEX 01 05:39:57
  TRACK 267 AUDIO
    TITLE "0:"
    INDEX 01 05:41:01
  TRACK 268 AUDIO
    TITLE "9:cjc171_02834"
    INDEX 01 05:41:30
  TRACK 269 AUDIO
    TITLE "0:"
    INDEX 01 05:44:46
  TRACK 270 AUDIO
    TITLE "10:cjc171_02835"
    INDEX 01 05:45:24
  TRACK 271 AUDIO
    TITLE "0:"
    INDEX 01 05:48:40
  TRACK 272 AUDIO
    TITLE "8:cjc171_02836"
    INDEX 01 05:49:45
  TRACK 273 AUDIO
    TITLE "0:"
    INDEX 01 05:51:03
  TRACK 274 AUDIO
    TITLE "9:cjc171_02837"
    INDEX 01 05:51:32
  TRACK 275 AUDIO
    TITLE "0:"
    INDEX 01 05:53:57
  TRACK 276 AUDIO
    TITLE "10:cjc171_02838"
    INDEX 01 05:54:37
  TRACK 277 AUDIO
    TITLE "0:"
    INDEX 01 05:56:63
  TRACK 278 AUDIO
    TITLE "8:cjc171_02839"
    INDEX 01 05:57:68
  TRACK 279 AUDIO
    TITLE "0:"
    INDEX 01 05:58:70
  TRACK 280 AUDIO
    TITLE "9:cjc171_02840"
    INDEX 01 05:59:22
  TRACK 281 AUDIO
    TITLE "0:"
    INDEX 01 06:00:63
  TRACK 282 AUDIO
    TITLE "10:cjc171_02841"
    INDEX 01 06:01:43
  TRACK 283 AUDIO
    TITLE "0:"
    INDEX 01 06:03:08
  TRACK 284 AUDIO
    TITLE "8:cjc171_02842"
    INDEX 01 06:04:12
  TRACK 285 AUDIO
    TITLE "0:"
    INDEX 01 06:05:31
  TRACK 286 AUDIO
    TITLE "9:cjc171_02843"
    INDEX 01 06:05:60
  TRACK 287 AUDIO
    TITLE "0:"
    INDEX 01 06:08:21
  TRACK 288 AUDIO
    TITLE "10:cjc171_02844"
    INDEX 01 06:08:74
  TRACK 289 AUDIO
    TITLE "0:"
    INDEX 01 06:11:35
  TRACK 290 AUDIO
    TITLE "8:cjc171_02845"
    INDEX 01 06:12:40
  TRACK 291 AUDIO
    TITLE "0:"
    INDEX 01 06:13:67
  TRACK 292 AUDIO
    TITLE "9:cjc171_02846"
    INDEX 01 06:14:22
  TRACK 293 AUDIO
    TITLE "0:"
    INDEX 01 06:16:70
  TRACK 294 AUDIO
    TITLE "10:cjc171_02847"
    INDEX 01 06:17:49
  TRACK 295 AUDIO
    TITLE "0:"
    INDEX 01 06:20:22
  TRACK 296 AUDIO
    TITLE "8:cjc171_02848"
    INDEX 01 06:21:28
  TRACK 297 AUDIO
    TITLE "0:"
    INDEX 01 06:22:47
  TRACK 298 AUDIO
    TITLE "9:cjc171_02849"
    INDEX 01 06:22:74
  TRACK 299 AUDIO
    TITLE "0:"
    INDEX 01 06:25:37
  TRACK 300 AUDIO
    TITLE "10:cjc171_02850"
    INDEX 01 06:26:17
  TRACK 301 AUDIO
    TITLE "0:"
    INDEX 01 06:28:53
  TRACK 302 AUDIO
    TITLE "8:cjc171_02851"
    INDEX 01 06:29:55
  TRACK 303 AUDIO
    TITLE "0:"
    INDEX 01 06:31:04
  TRACK 304 AUDIO
    TITLE "9:cjc171_02852"
    INDEX 01 06:31:28
  TRACK 305 AUDIO
    TITLE "0:"
    INDEX 01 06:33:48
  TRACK 306 AUDIO
    TITLE "10:cjc171_02853"
    INDEX 01 06:34:19
  TRACK 307 AUDIO
    TITLE "0:"
    INDEX 01 06:36:37
  TRACK 308 AUDIO
    TITLE "8:cjc171_02854"
    INDEX 01 06:37:36
  TRACK 309 AUDIO
    TITLE "0:"
    INDEX 01 06:38:46
  TRACK 310 AUDIO
    TITLE "9:cjc171_02855"
    INDEX 01 06:38:65
  TRACK 311 AUDIO
    TITLE "0:"
    INDEX 01 06:42:14
  TRACK 312 AUDIO
    TITLE "10:cjc171_02856"
    INDEX 01 06:42:65
  TRACK 313 AUDIO
    TITLE "0:"
    INDEX 01 06:46:14
  TRACK 314 AUDIO
    TITLE "8:cjc171_02857"
    INDEX 01 06:47:19
  TRACK 315 AUDIO
    TITLE "0:"
    INDEX 01 06:48:32
  TRACK 316 AUDIO
    TITLE "9:cjc171_02858"
    INDEX 01 06:48:52
  TRACK 317 AUDIO
    TITLE "0:"
    INDEX 01 06:51:21
  TRACK 318 AUDIO
    TITLE "10:cjc171_02859"
    INDEX 01 06:51:68
  TRACK 319 AUDIO
    TITLE "0:"
    INDEX 01 06:54:37
  TRACK 320 AUDIO
    TITLE "8:cjc171_02860"
    INDEX 01 06:55:32
  TRACK 321 AUDIO
    TITLE "0:"
    INDEX 01 06:56:53
  TRACK 322 AUDIO
    TITLE "9:cjc171_02861"
    INDEX 01 06:56:73
  TRACK 323 AUDIO
    TITLE "0:"
    INDEX 01 06:59:65
  TRACK 324 AUDIO
    TITLE "10:cjc171_02862"
    INDEX 01 07:00:36
  TRACK 325 AUDIO
    TITLE "0:"
    INDEX 01 07:03:28
  TRACK 326 AUDIO
    TITLE "8:cjc171_02863"
    INDEX 01 07:04:22
  TRACK 327 AUDIO
    TITLE "0:"
    INDEX 01 07:05:33
  TRACK 328 AUDIO
    TITLE "9:cjc171_02864"
    INDEX 01 07:05:64
  TRACK 329 AUDIO
    TITLE "0:"
    INDEX 01 07:08:31
  TRACK 330 AUDIO
    TITLE "10:cjc171_02865"
    INDEX 01 07:09:01
  TRACK 331 AUDIO
    TITLE "0:"
    INDEX 01 07:11:43
  TRACK 332 AUDIO
    TITLE "8:cjc171_02866"
    INDEX 01 07:12:39
  TRACK 333 AUDIO
    TITLE "0:"
    INDEX 01 07:13:60
  TRACK 334 AUDIO
    TITLE "9:cjc171_02867"
    INDEX 01 07:14:04
  TRACK 335 AUDIO
    TITLE "0:"
    INDEX 01 07:16:37
  TRACK 336 AUDIO
    TITLE "10:cjc171_02868"
    INDEX 01 07:17:07
  TRACK 337 AUDIO
    TITLE "0:"
    INDEX 01 07:19:39
  TRACK 338 AUDIO
    TITLE "8:cjc171_02869"
    INDEX 01 07:20:36
  TRACK 339 AUDIO
    TITLE "0:"
    INDEX 01 07:21:49
  TRACK 340 AUDIO
    TITLE "9:cjc171_02870"
    INDEX 01 07:21:69
  TRACK 341 AUDIO
    TITLE "0:"
    INDEX 01 07:24:46
  TRACK 342 AUDIO
    TITLE "10:cjc171_02871"
    INDEX 01 07:25:28
  TRACK 343 AUDIO
    TITLE "0:"
    INDEX 01 07:28:02
  TRACK 344 AUDIO
    TITLE "8:cjc171_02872"
    INDEX 01 07:29:10
  TRACK 345 AUDIO
    TITLE "0:"
    INDEX 01 07:30:23
  TRACK 346 AUDIO
    TITLE "9:cjc171_02873"
    INDEX 01 07:30:44
  TRACK 347 AUDIO
    TITLE "0:"
    INDEX 01 07:32:63
  TRACK 348 AUDIO
    TITLE "10:cjc171_02874"
    INDEX 01 07:33:45
  TRACK 349 AUDIO
    TITLE "0:"
    INDEX 01 07:35:73
  TRACK 350 AUDIO
    TITLE "8:cjc171_02875"
    INDEX 01 07:37:01
  TRACK 351 AUDIO
    TITLE "0:"
    INDEX 01 07:38:26
  TRACK 352 AUDIO
    TITLE "9:cjc171_02876"
    INDEX 01 07:38:48
  TRACK 353 AUDIO
    TITLE "0:"
    INDEX 01 07:41:11
  TRACK 354 AUDIO
    TITLE "10:cjc171_02877"
    INDEX 01 07:41:58
  TRACK 355 AUDIO
    TITLE "0:"
    INDEX 01 07:44:21
  TRACK 356 AUDIO
    TITLE "8:cjc171_02878"
    INDEX 01 07:45:17
  TRACK 357 AUDIO
    TITLE "0:"
    INDEX 01 07:46:34
  TRACK 358 AUDIO
    TITLE "9:cjc171_02879"
    INDEX 01 07:46:51
  TRACK 359 AUDIO
    TITLE "0:"
    INDEX 01 07:48:48
  TRACK 360 AUDIO
    TITLE "10:cjc171_02880"
    INDEX 01 07:49:22
  TRACK 361 AUDIO
    TITLE "0:"
    INDEX 01 07:51:19
  TRACK 362 AUDIO
    TITLE "8:cjc171_02881"
    INDEX 01 07:52:24
  TRACK 363 AUDIO
    TITLE "0:"
    INDEX 01 07:53:57
  TRACK 364 AUDIO
    TITLE "9:cjc171_02882"
    INDEX 01 07:54:04
  TRACK 365 AUDIO
    TITLE "0:"
    INDEX 01 07:56:65
  TRACK 366 AUDIO
    TITLE "10:cjc171_02883"
    INDEX 01 07:57:37
  TRACK 367 AUDIO
    TITLE "0:"
    INDEX 01 08:00:22
  TRACK 368 AUDIO
    TITLE "8:cjc171_02884"
    INDEX 01 08:01:27
  TRACK 369 AUDIO
    TITLE "0:"
    INDEX 01 08:02:37
  TRACK 370 AUDIO
    TITLE "9:cjc171_02885"
    INDEX 01 08:02:68
  TRACK 371 AUDIO
    TITLE "0:"
    INDEX 01 08:05:06
  TRACK 372 AUDIO
    TITLE "10:cjc171_02886"
    INDEX 01 08:05:62
  TRACK 373 AUDIO
    TITLE "0:"
    INDEX 01 08:08:02
  TRACK 374 AUDIO
    TITLE "8:cjc171_02887"
    INDEX 01 08:09:07
  TRACK 375 AUDIO
    TITLE "0:"
    INDEX 01 08:10:11
  TRACK 376 AUDIO
    TITLE "9:cjc171_02888"
    INDEX 01 08:10:40
  TRACK 377 AUDIO
    TITLE "0:"
    INDEX 01 08:12:29
  TRACK 378 AUDIO
    TITLE "10:cjc171_02889"
    INDEX 01 08:13:07
  TRACK 379 AUDIO
    TITLE "0:"
    INDEX 01 08:14:71
  TRACK 380 AUDIO
    TITLE "8:cjc171_02890"
    INDEX 01 08:16:01
  TRACK 381 AUDIO
    TITLE "0:"
    INDEX 01 08:17:15
  TRACK 382 AUDIO
    TITLE "9:cjc171_02891"
    INDEX 01 08:17:44
  TRACK 383 AUDIO
    TITLE "0:"
    INDEX 01 08:19:47
  TRACK 384 AUDIO
    TITLE "10:cjc171_02892"
    INDEX 01 08:20:27
  TRACK 385 AUDIO
    TITLE "0:"
    INDEX 01 08:22:30
  TRACK 386 AUDIO
    TITLE "8:cjc171_02893"
    INDEX 01 08:23:35
  TRACK 387 AUDIO
    TITLE "0:"
    INDEX 01 08:24:60
  TRACK 388 AUDIO
    TITLE "9:cjc171_02894"
    INDEX 01 08:25:14
  TRACK 389 AUDIO
    TITLE "0:"
    INDEX 01 08:27:62
  TRACK 390 AUDIO
    TITLE "10:cjc171_02895"
    INDEX 01 08:28:42
  TRACK 391 AUDIO
    TITLE "0:"
    INDEX 01 08:31:15
  TRACK 392 AUDIO
    TITLE "8:cjc171_02896"
    INDEX 01 08:32:20
  TRACK 393 AUDIO
    TITLE "0:"
    INDEX 01 08:33:39
  TRACK 394 AUDIO
    TITLE "9:cjc171_02897"
    INDEX 01 08:33:67
  TRACK 395 AUDIO
    TITLE "0:"
    INDEX 01 08:35:73
  TRACK 396 AUDIO
    TITLE "10:cjc171_02898"
    INDEX 01 08:36:51
  TRACK 397 AUDIO
    TITLE "0:"
    INDEX 01 08:38:60
  TRACK 398 AUDIO
    TITLE "8:cjc171_02899"
    INDEX 01 08:39:61
  TRACK 399 AUDIO
    TITLE "0:"
    INDEX 01 08:41:13
  TRACK 400 AUDIO
    TITLE "9:cjc171_02900"
    INDEX 01 08:41:43
  TRACK 401 AUDIO
    TITLE "0:"
    INDEX 01 08:43:34
  TRACK 402 AUDIO
    TITLE "10:cjc171_02901"
    INDEX 01 08:44:12
  TRACK 403 AUDIO
    TITLE "0:"
    INDEX 01 08:46:07
  TRACK 404 AUDIO
    TITLE "8:cjc171_02902"
    INDEX 01 08:47:08
  TRACK 405 AUDIO
    TITLE "0:"
    INDEX 01 08:48:15
  TRACK 406 AUDIO
    TITLE "9:cjc171_02903"
    INDEX 01 08:48:45
  TRACK 407 AUDIO
    TITLE "0:"
    INDEX 01 08:51:43
  TRACK 408 AUDIO
    TITLE "10:cjc171_02904"
    INDEX 01 08:52:23
  TRACK 409 AUDIO
    TITLE "0:"
    INDEX 01 08:55:21
  TRACK 410 AUDIO
    TITLE "8:cjc171_02905"
    INDEX 01 08:56:25
  TRACK 411 AUDIO
    TITLE "0:"
    INDEX 01 08:57:46
  TRACK 412 AUDIO
    TITLE "9:cjc171_02906"
    INDEX 01 08:58:00
  TRACK 413 AUDIO
    TITLE "0:"
    INDEX 01 09:00:16
  TRACK 414 AUDIO
    TITLE "10:cjc171_02907"
    INDEX 01 09:00:73
  TRACK 415 AUDIO
    TITLE "0:"
    INDEX 01 09:03:13
  TRACK 416 AUDIO
    TITLE "8:cjc171_02908"
    INDEX 01 09:04:20
  TRACK 417 AUDIO
    TITLE "0:"
    INDEX 01 09:05:43
  TRACK 418 AUDIO
    TITLE "9:cjc171_02909"
    INDEX 01 09:06:03
  TRACK 419 AUDIO
    TITLE "0:"
    INDEX 01 09:08:51
  TRACK 420 AUDIO
    TITLE "10:cjc171_02910"
    INDEX 01 09:09:31
  TRACK 421 AUDIO
    TITLE "0:"
    INDEX 01 09:12:06
  TRACK 422 AUDIO
    TITLE "8:cjc171_02911"
    INDEX 01 09:13:07
  TRACK 423 AUDIO
    TITLE "0:"
    INDEX 01 09:14:36
  TRACK 424 AUDIO
    TITLE "9:cjc171_02912"
    INDEX 01 09:14:60
  TRACK 425 AUDIO
    TITLE "0:"
    INDEX 01 09:16:45
  TRACK 426 AUDIO
    TITLE "10:cjc171_02913"
    INDEX 01 09:17:15
  TRACK 427 AUDIO
    TITLE "0:"
    INDEX 01 09:19:02
  TRACK 428 AUDIO
    TITLE "8:cjc171_02914"
    INDEX 01 09:19:73
  TRACK 429 AUDIO
    TITLE "0:"
    INDEX 01 09:21:17
  TRACK 430 AUDIO
    TITLE "9:cjc171_02915"
    INDEX 01 09:21:38
  TRACK 431 AUDIO
    TITLE "0:"
    INDEX 01 09:23:61
  TRACK 432 AUDIO
    TITLE "10:cjc171_02916"
    INDEX 01 09:24:33
  TRACK 433 AUDIO
    TITLE "0:"
    INDEX 01 09:26:55
  TRACK 434 AUDIO
    TITLE "8:cjc171_02917"
    INDEX 01 09:27:52
  TRACK 435 AUDIO
    TITLE "0:"
    INDEX 01 09:28:70
  TRACK 436 AUDIO
    TITLE "9:cjc171_02918"
    INDEX 01 09:29:18
  TRACK 437 AUDIO
    TITLE "0:"
    INDEX 01 09:31:74
  TRACK 438 AUDIO
    TITLE "10:cjc171_02919"
    INDEX 01 09:32:46
  TRACK 439 AUDIO
    TITLE "0:"
    INDEX 01 09:35:28
  TRACK 440 AUDIO
    TITLE "8:cjc171_02920"
    INDEX 01 09:36:22
  TRACK 441 AUDIO
    TITLE "0:"
    INDEX 01 09:37:47
  TRACK 442 AUDIO
    TITLE "9:cjc171_02921"
    INDEX 01 09:37:70
  TRACK 443 AUDIO
    TITLE "0:"
    INDEX 01 09:40:63
  TRACK 444 AUDIO
    TITLE "10:cjc171_02922"
    INDEX 01 09:41:35
  TRACK 445 AUDIO
    TITLE "0:"
    INDEX 01 09:44:29
  TRACK 446 AUDIO
    TITLE "8:cjc171_02923"
    INDEX 01 09:45:25
  TRACK 447 AUDIO
    TITLE "0:"
    INDEX 01 09:46:28
  TRACK 448 AUDIO
    TITLE "9:cjc171_02924"
    INDEX 01 09:46:48
  TRACK 449 AUDIO
    TITLE "0:"
    INDEX 01 09:48:25
  TRACK 450 AUDIO
    TITLE "10:cjc171_02925"
    INDEX 01 09:48:70
  TRACK 451 AUDIO
    TITLE "0:"
    INDEX 01 09:50:48
  TRACK 452 AUDIO
    TITLE "8:cjc171_02926"
    INDEX 01 09:51:43
  TRACK 453 AUDIO
    TITLE "0:"
    INDEX 01 09:52:56
  TRACK 454 AUDIO
    TITLE "9:cjc171_02927"
    INDEX 01 09:52:74
  TRACK 455 AUDIO
    TITLE "0:"
    INDEX 01 09:55:06
  TRACK 456 AUDIO
    TITLE "10:cjc171_02928"
    INDEX 01 09:55:53
  TRACK 457 AUDIO
    TITLE "0:"
    INDEX 01 09:57:57
  TRACK 458 AUDIO
    TITLE "8:cjc171_02929"
    INDEX 01 09:58:55
  TRACK 459 AUDIO
    TITLE "0:"
    INDEX 01 10:00:01
  TRACK 460 AUDIO
    TITLE "9:cjc171_02930"
    INDEX 01 10:00:25
  TRACK 461 AUDIO
    TITLE "0:"
    INDEX 01 10:02:39
  TRACK 462 AUDIO
    TITLE "10:cjc171_02931"
    INDEX 01 10:03:11
  TRACK 463 AUDIO
    TITLE "0:"
    INDEX 01 10:05:30
  TRACK 464 AUDIO
    TITLE "8:cjc171_02932"
    INDEX 01 10:06:27
  TRACK 465 AUDIO
    TITLE "0:"
    INDEX 01 10:07:34
  TRACK 466 AUDIO
    TITLE "9:cjc171_02933"
    INDEX 01 10:07:52
  TRACK 467 AUDIO
    TITLE "0:"
    INDEX 01 10:09:61
  TRACK 468 AUDIO
    TITLE "10:cjc171_02934"
    INDEX 01 10:10:35
  TRACK 469 AUDIO
    TITLE "0:"
    INDEX 01 10:12:43
  TRACK 470 AUDIO
    TITLE "8:cjc171_02935"
    INDEX 01 10:13:45
  TRACK 471 AUDIO
    TITLE "0:"
    INDEX 01 10:14:54
  TRACK 472 AUDIO
    TITLE "9:cjc171_02936"
    INDEX 01 10:15:01
  TRACK 473 AUDIO
    TITLE "0:"
    INDEX 01 10:16:65
  TRACK 474 AUDIO
    TITLE "10:cjc171_02937"
    INDEX 01 10:17:35
  TRACK 475 AUDIO
    TITLE "0:"
    INDEX 01 10:19:26
  TRACK 476 AUDIO
    TITLE "8:cjc171_02938"
    INDEX 01 10:20:19
  TRACK 477 AUDIO
    TITLE "0:"
    INDEX 01 10:21:38
  TRACK 478 AUDIO
    TITLE "9:cjc171_02939"
    INDEX 01 10:21:58
  TRACK 479 AUDIO
    TITLE "0:"
    INDEX 01 10:23:37
  TRACK 480 AUDIO
    TITLE "10:cjc171_02940"
    INDEX 01 10:24:09
  TRACK 481 AUDIO
    TITLE "0:"
    INDEX 01 10:25:64
  TRACK 482 AUDIO
    TITLE "8:cjc171_02941"
    INDEX 01 10:26:67
  TRACK 483 AUDIO
    TITLE "0:"
    INDEX 01 10:28:05
  TRACK 484 AUDIO
    TITLE "9:cjc171_02942"
    INDEX 01 10:28:37
  TRACK 485 AUDIO
    TITLE "0:"
    INDEX 01 10:30:43
  TRACK 486 AUDIO
    TITLE "10:cjc171_02943"
    INDEX 01 10:31:21
  TRACK 487 AUDIO
    TITLE "0:"
    INDEX 01 10:33:30
  TRACK 488 AUDIO
    TITLE "8:cjc171_02944"
    INDEX 01 10:34:37
  TRACK 489 AUDIO
    TITLE "0:"
    INDEX 01 10:35:40
  TRACK 490 AUDIO
    TITLE "9:cjc171_02945"
    INDEX 01 10:35:70
  TRACK 491 AUDIO
    TITLE "0:"
    INDEX 01 10:37:63
  TRACK 492 AUDIO
    TITLE "10:cjc171_02946"
    INDEX 01 10:38:43
  TRACK 493 AUDIO
    TITLE "0:"
    INDEX 01 10:40:36
  TRACK 494 AUDIO
    TITLE "8:cjc171_02947"
    INDEX 01 10:41:39
  TRACK 495 AUDIO
    TITLE "0:"
    INDEX 01 10:43:03
  TRACK 496 AUDIO
    TITLE "9:cjc171_02948"
    INDEX 01 10:43:32
  TRACK 497 AUDIO
    TITLE "0:"
    INDEX 01 10:46:11
  TRACK 498 AUDIO
    TITLE "10:cjc171_02949"
    INDEX 01 10:46:64
  TRACK 499 AUDIO
    TITLE "0:"
    INDEX 01 10:49:43
  TRACK 500 AUDIO
    TITLE "8:cjc171_02950"
    INDEX 01 10:50:48
  TRACK 501 AUDIO
    TITLE "0:"
    INDEX 01 10:52:35
  TRACK 502 AUDIO
    TITLE "9:cjc171_02951"
    INDEX 01 10:52:64
  TRACK 503 AUDIO
    TITLE "0:"
    INDEX 01 10:55:24
  TRACK 504 AUDIO
    TITLE "10:cjc171_02952"
    INDEX 01 10:56:01
  TRACK 505 AUDIO
    TITLE "0:"
    INDEX 01 10:58:36
  TRACK 506 AUDIO
    TITLE "8:cjc171_02953"
    INDEX 01 10:59:41
  TRACK 507 AUDIO
    TITLE "0:"
    INDEX 01 11:00:50
  TRACK 508 AUDIO
    TITLE "9:cjc171_02954"
    INDEX 01 11:01:05
  TRACK 509 AUDIO
    TITLE "0:"
    INDEX 01 11:03:49
  TRACK 510 AUDIO
    TITLE "10:cjc171_02955"
    INDEX 01 11:04:26
  TRACK 511 AUDIO
    TITLE "0:"
    INDEX 01 11:06:70
  TRACK 512 AUDIO
    TITLE "8:cjc171_02956"
    INDEX 01 11:07:70
  TRACK 513 AUDIO
    TITLE "0:"
    INDEX 01 11:09:08
  TRACK 514 AUDIO
    TITLE "9:cjc171_02957"
    INDEX 01 11:09:37
  TRACK 515 AUDIO
    TITLE "0:"
    INDEX 01 11:11:54
  TRACK 516 AUDIO
    TITLE "10:cjc171_02958"
    INDEX 01 11:12:36
  TRACK 517 AUDIO
    TITLE "0:"
    INDEX 01 11:14:52
  TRACK 518 AUDIO
    TITLE "8:cjc171_02959"
    INDEX 01 11:15:58
  TRACK 519 AUDIO
    TITLE "0:"
    INDEX 01 11:17:02
  TRACK 520 AUDIO
    TITLE "9:cjc171_02960"
    INDEX 01 11:17:29
  TRACK 521 AUDIO
    TITLE "0:"
    INDEX 01 11:19:24
  TRACK 522 AUDIO
    TITLE "10:cjc171_02961"
    INDEX 01 11:20:02
  TRACK 523 AUDIO
    TITLE "0:"
    INDEX 01 11:21:70
  TRACK 524 AUDIO
    TITLE "8:cjc171_02962"
    INDEX 01 11:23:00
  TRACK 525 AUDIO
    TITLE "0:"
    INDEX 01 11:24:02
  TRACK 526 AUDIO
    TITLE "9:cjc171_02963"
    INDEX 01 11:24:33
  TRACK 527 AUDIO
    TITLE "0:"
    INDEX 01 11:27:00
  TRACK 528 AUDIO
    TITLE "10:cjc171_02964"
    INDEX 01 11:27:55
  TRACK 529 AUDIO
    TITLE "0:"
    INDEX 01 11:30:24
  TRACK 530 AUDIO
    TITLE "8:cjc171_02965"
    INDEX 01 11:31:27
  TRACK 531 AUDIO
    TITLE "0:"
    INDEX 01 11:32:62
  TRACK 532 AUDIO
    TITLE "9:cjc171_02966"
    INDEX 01 11:33:14
  TRACK 533 AUDIO
    TITLE "0:"
    INDEX 01 11:36:07
  TRACK 534 AUDIO
    TITLE "10:cjc171_02967"
    INDEX 01 11:36:60
  TRACK 535 AUDIO
    TITLE "0:"
    INDEX 01 11:39:52
  TRACK 536 AUDIO
    TITLE "8:cjc171_02968"
    INDEX 01 11:40:54
  TRACK 537 AUDIO
    TITLE "0:"
    INDEX 01 11:41:69
  TRACK 538 AUDIO
    TITLE "9:cjc171_02969"
    INDEX 01 11:42:23
  TRACK 539 AUDIO
    TITLE "0:"
    INDEX 01 11:44:10
  TRACK 540 AUDIO
    TITLE "10:cjc171_02970"
    INDEX 01 11:44:65
  TRACK 541 AUDIO
    TITLE "0:"
    INDEX 01 11:46:52
  TRACK 542 AUDIO
    TITLE "8:cjc171_02971"
    INDEX 01 11:47:58
  TRACK 543 AUDIO
    TITLE "0:"
    INDEX 01 11:48:63
  TRACK 544 AUDIO
    TITLE "9:cjc171_02972"
    INDEX 01 11:49:10
  TRACK 545 AUDIO
    TITLE "0:"
    INDEX 01 11:51:28
  TRACK 546 AUDIO
    TITLE "10:cjc171_02973"
    INDEX 01 11:52:12
  TRACK 547 AUDIO
    TITLE "0:"
    INDEX 01 11:54:30
  TRACK 548 AUDIO
    TITLE "8:cjc171_02974"
    INDEX 01 11:55:39
  TRACK 549 AUDIO
    TITLE "0:"
    INDEX 01 11:56:51
  TRACK 550 AUDIO
    TITLE "9:cjc171_02975"
    INDEX 01 11:56:72
  TRACK 551 AUDIO
    TITLE "0:"
    INDEX 01 11:58:63
  TRACK 552 AUDIO
    TITLE "10:cjc171_02976"
    INDEX 01 11:59:51
  TRACK 553 AUDIO
    TITLE "0:"
    INDEX 01 12:01:42
  TRACK 554 AUDIO
    TITLE "8:cjc171_02977"
    INDEX 01 12:02:57
  TRACK 555 AUDIO
    TITLE "0:"
    INDEX 01 12:03:61
  TRACK 556 AUDIO
    TITLE "9:cjc171_02978"
    INDEX 01 12:04:07
  TRACK 557 AUDIO
    TITLE "0:"
    INDEX 01 12:06:00
  TRACK 558 AUDIO
    TITLE "10:cjc171_02979"
    INDEX 01 12:06:47
  TRACK 559 AUDIO
    TITLE "0:"
    INDEX 01 12:08:40
  TRACK 560 AUDIO
    TITLE "8:cjc171_02980"
    INDEX 01 12:09:38
  TRACK 561 AUDIO
    TITLE "0:"
    INDEX 01 12:10:53
  TRACK 562 AUDIO
    TITLE "9:cjc171_02981"
    INDEX 01 12:10:72
  TRACK 563 AUDIO
    TITLE "0:"
    INDEX 01 12:12:73
  TRACK 564 AUDIO
    TITLE "10:cjc171_02982"
    INDEX 01 12:13:53
  TRACK 565 AUDIO
    TITLE "0:"
    INDEX 01 12:15:54
  TRACK 566 AUDIO
    TITLE "8:cjc171_02983"
    INDEX 01 12:16:57
  TRACK 567 AUDIO
    TITLE "0:"
    INDEX 01 12:17:63
  TRACK 568 AUDIO
    TITLE "9:cjc171_02984"
    INDEX 01 12:18:17
  TRACK 569 AUDIO
    TITLE "0:"
    INDEX 01 12:20:02
  TRACK 570 AUDIO
    TITLE "10:cjc171_02985"
    INDEX 01 12:20:53
  TRACK 571 AUDIO
    TITLE "0:"
    INDEX 01 12:22:36
  TRACK 572 AUDIO
    TITLE "8:cjc171_02986"
    INDEX 01 12:23:34
  TRACK 573 AUDIO
    TITLE "0:"
    INDEX 01 12:24:49
  TRACK 574 AUDIO
    TITLE "9:cjc171_02987"
    INDEX 01 12:24:73
  TRACK 575 AUDIO
    TITLE "0:"
    INDEX 01 12:27:10
  TRACK 576 AUDIO
    TITLE "10:cjc171_02988"
    INDEX 01 12:27:57
  TRACK 577 AUDIO
    TITLE "0:"
    INDEX 01 12:29:74
  TRACK 578 AUDIO
    TITLE "8:cjc171_02989"
    INDEX 01 12:30:69
  TRACK 579 AUDIO
    TITLE "0:"
    INDEX 01 12:32:13
  TRACK 580 AUDIO
    TITLE "9:cjc171_02990"
    INDEX 01 12:32:39
  TRACK 581 AUDIO
    TITLE "0:"
    INDEX 01 12:34:36
  TRACK 582 AUDIO
    TITLE "10:cjc171_02991"
    INDEX 01 12:35:10
  TRACK 583 AUDIO
    TITLE "0:"
    INDEX 01 12:37:05
  TRACK 584 AUDIO
    TITLE "8:cjc171_02992"
    INDEX 01 12:38:02
  TRACK 585 AUDIO
    TITLE "0:"
    INDEX 01 12:39:29
  TRACK 586 AUDIO
    TITLE "9:cjc171_02993"
    INDEX 01 12:39:49
  TRACK 587 AUDIO
    TITLE "0:"
    INDEX 01 12:42:04
  TRACK 588 AUDIO
    TITLE "10:cjc171_02994"
    INDEX 01 12:42:57
  TRACK 589 AUDIO
    TITLE "0:"
    INDEX 01 12:45:14
  TRACK 590 AUDIO
    TITLE "8:cjc171_02995"
    INDEX 01 12:46:11
  TRACK 591 AUDIO
    TITLE "0:"
    INDEX 01 12:47:13
  TRACK 592 AUDIO
    TITLE "9:cjc171_02996"
    INDEX 01 12:47:42
  TRACK 593 AUDIO
    TITLE "0:"
    INDEX 01 12:49:06
  TRACK 594 AUDIO
    TITLE "10:cjc171_02997"
    INDEX 01 12:49:55
  TRACK 595 AUDIO
    TITLE "0:"
    INDEX 01 12:51:18
  TRACK 596 AUDIO
    TITLE "8:cjc171_02998"
    INDEX 01 12:52:18
  TRACK 597 AUDIO
    TITLE "0:"
    INDEX 01 12:53:29
  TRACK 598 AUDIO
    TITLE "9:cjc171_02999"
    INDEX 01 12:53:51
  TRACK 599 AUDIO
    TITLE "0:"
    INDEX 01 12:56:04
  TRACK 600 AUDIO
    TITLE "10:cjc171_03000"
    INDEX 01 12:56:53
  TRACK 601 AUDIO
    TITLE "0:"
    INDEX 01 12:59:06
